<svg width="98" height="81" fill="none" xmlns="http://www.w3.org/2000/svg"><path d="M45.014 28.08v-7.01m16.632 14.295h8.11m-37.8 10.447h4.398M53.948 60.52v-7.01" stroke="#05C2DF"/><rect x="36.717" y="28.442" width="24.567" height="24.567" rx="3.5" stroke="#05C2DF"/><rect x="41.39" y="33.116" width="15.495" height="15.495" rx="3.5" stroke="#05C2DF"/><rect x="69.981" y="1.5" width="18.519" height="18.519" rx="3.5" stroke="#05C2DF"/><rect x="74.38" y="5.899" width="9.997" height="9.997" rx="2.5" stroke="#05C2DF"/><rect x="9.5" y="1.5" width="18.519" height="18.519" rx="3.5" stroke="#05C2DF"/><rect x="13.898" y="5.899" width="9.997" height="9.997" rx="2.5" stroke="#05C2DF"/><rect x="10.325" y="61.432" width="18.519" height="18.519" rx="3.5" stroke="#05C2DF"/><rect x="14.724" y="65.831" width="9.997" height="9.997" rx="2.5" stroke="#05C2DF"/><rect x="69.981" y="61.432" width="18.519" height="18.519" rx="3.5" stroke="#05C2DF"/><rect x="74.38" y="65.831" width="9.997" height="9.997" rx="2.5" stroke="#05C2DF"/><path d="M54.224 28.08V10.898h15.12M36.353 38.114H18.896V20.519M61.784 41.963h17.182v18.969M45.563 53.51V70.69H29.206" stroke="#05C2DF"/><circle cx="45.013" cy="18.595" r="1.974" stroke="#05C2DF"/><circle cx="72.23" cy="35.365" r="1.974" stroke="#05C2DF"/><circle cx="29.619" cy="45.812" r="1.974" stroke="#05C2DF"/><circle cx="53.811" cy="62.856" r="1.974" stroke="#05C2DF"/></svg>