<svg width="113" height="82" fill="none" xmlns="http://www.w3.org/2000/svg"><circle cx="56.654" cy="41.156" r="13.59" stroke="#05C2DF"/><path d="M71.097 26.75c4.67 3.09 7.75 8.388 7.75 14.406 0 6.018-3.08 11.317-7.75 14.406M71.272 55.422l6.34 8.102" stroke="#05C2DF"/><path d="M77.437 63.7c7.429-4.872 12.329-13.23 12.329-22.72 0-9.492-4.9-17.848-12.329-22.72l-6.34 8.63" stroke="#05C2DF"/><path d="M84.482 9.806c9.976 6.61 16.556 17.946 16.556 30.822 0 12.875-6.58 24.212-16.556 30.821" stroke="#05C2DF"/><path d="M84.482 9.982 90.822 1c12.948 8.535 21.487 23.176 21.487 39.804 0 16.628-8.539 31.268-21.487 39.803l-6.516-9.158M42.212 26.75c-4.67 3.09-7.75 8.388-7.75 14.406 0 6.018 3.08 11.317 7.75 14.406M42.036 55.422l-6.34 8.102" stroke="#05C2DF"/><path d="M35.871 63.7c-7.428-4.872-12.328-13.23-12.328-22.72 0-9.492 4.9-17.848 12.328-22.72l6.34 8.63" stroke="#05C2DF"/><path d="M28.827 9.806c-9.976 6.61-16.555 17.946-16.555 30.822 0 12.875 6.58 24.212 16.555 30.821" stroke="#05C2DF"/><path d="M28.828 9.982 22.488 1C9.54 9.535 1 24.176 1 40.804c0 16.628 8.54 31.268 21.487 39.803l6.517-9.158" stroke="#05C2DF"/></svg>